<svg width="143" height="40" viewBox="0 0 143 40" fill="none" xmlns="http://www.w3.org/2000/svg">
<rect width="40" height="40" rx="11.4286" fill="white"/>
<circle cx="12.8571" cy="12.8571" r="5.71429" fill="#5956E9"/>
<circle cx="12.8571" cy="27.1428" r="5.71429" fill="#FFDEE4"/>
<circle cx="27.1428" cy="12.8571" r="5.71429" fill="#FAB8C4"/>
<circle cx="27.1428" cy="27.1428" r="5.71429" fill="#5956E9"/>
<path d="M59.2027 29.892C56.272 29.892 53.836 28.9213 51.8947 26.98C49.972 25.02 49.0107 22.5933 49.0107 19.7C49.0107 16.8067 49.972 14.3893 51.8947 12.448C53.836 10.488 56.272 9.508 59.2027 9.508C60.9573 9.508 62.5813 9.91867 64.0747 10.74C65.568 11.5427 66.744 12.644 67.6027 14.044L63.7387 16.284C63.3093 15.5187 62.6933 14.9307 61.8907 14.52C61.088 14.0907 60.192 13.876 59.2027 13.876C57.4667 13.876 56.076 14.408 55.0307 15.472C54.004 16.536 53.4907 17.9453 53.4907 19.7C53.4907 21.4547 54.004 22.864 55.0307 23.928C56.076 24.992 57.4667 25.524 59.2027 25.524C60.192 25.524 61.088 25.3093 61.8907 24.88C62.712 24.4507 63.328 23.8627 63.7387 23.116L67.6027 25.356C66.7627 26.756 65.596 27.8667 64.1027 28.688C62.6093 29.4907 60.976 29.892 59.2027 29.892ZM80.8429 27.764C79.4056 29.1827 77.6509 29.892 75.5789 29.892C73.5069 29.892 71.7523 29.1827 70.3149 27.764C68.8776 26.3267 68.1589 24.572 68.1589 22.5C68.1589 20.428 68.8776 18.6827 70.3149 17.264C71.7523 15.8267 73.5069 15.108 75.5789 15.108C77.6509 15.108 79.4056 15.8267 80.8429 17.264C82.2803 18.6827 82.9989 20.428 82.9989 22.5C82.9989 24.572 82.2803 26.3267 80.8429 27.764ZM73.2829 24.88C73.8989 25.496 74.6643 25.804 75.5789 25.804C76.4936 25.804 77.2589 25.496 77.8749 24.88C78.4909 24.264 78.7989 23.4707 78.7989 22.5C78.7989 21.5293 78.4909 20.736 77.8749 20.12C77.2589 19.504 76.4936 19.196 75.5789 19.196C74.6643 19.196 73.8989 19.504 73.2829 20.12C72.6669 20.736 72.3589 21.5293 72.3589 22.5C72.3589 23.4707 72.6669 24.264 73.2829 24.88ZM84.5346 29.5V9.06H88.7346V29.5H84.5346ZM102.952 27.764C101.515 29.1827 99.76 29.892 97.688 29.892C95.616 29.892 93.8613 29.1827 92.424 27.764C90.9867 26.3267 90.268 24.572 90.268 22.5C90.268 20.428 90.9867 18.6827 92.424 17.264C93.8613 15.8267 95.616 15.108 97.688 15.108C99.76 15.108 101.515 15.8267 102.952 17.264C104.389 18.6827 105.108 20.428 105.108 22.5C105.108 24.572 104.389 26.3267 102.952 27.764ZM95.392 24.88C96.008 25.496 96.7733 25.804 97.688 25.804C98.6027 25.804 99.368 25.496 99.984 24.88C100.6 24.264 100.908 23.4707 100.908 22.5C100.908 21.5293 100.6 20.736 99.984 20.12C99.368 19.504 98.6027 19.196 97.688 19.196C96.7733 19.196 96.008 19.504 95.392 20.12C94.776 20.736 94.468 21.5293 94.468 22.5C94.468 23.4707 94.776 24.264 95.392 24.88ZM114.848 15.108C116.341 15.108 117.582 15.6213 118.572 16.648C119.58 17.6747 120.084 19.0933 120.084 20.904V29.5H115.884V21.52C115.884 20.6987 115.65 20.0733 115.184 19.644C114.736 19.196 114.157 18.972 113.448 18.972C112.645 18.972 112.01 19.2147 111.544 19.7C111.077 20.1853 110.844 20.904 110.844 21.856V29.5H106.644V15.5H110.844V16.816C111.684 15.6773 113.018 15.108 114.848 15.108ZM130.674 15.5H135.154L130.366 29.08C129.582 31.2827 128.546 32.86 127.258 33.812C125.989 34.764 124.365 35.1933 122.386 35.1V31.18C123.357 31.18 124.104 31.0027 124.626 30.648C125.149 30.312 125.569 29.7147 125.886 28.856L120.314 15.5H124.934L128.042 24.068L130.674 15.5Z" fill="#292930"/>
<path d="M137.99 29.696C137.281 29.696 136.693 29.4813 136.226 29.052C135.778 28.604 135.554 28.0533 135.554 27.4C135.554 26.7467 135.778 26.2053 136.226 25.776C136.693 25.328 137.281 25.104 137.99 25.104C138.681 25.104 139.25 25.328 139.698 25.776C140.146 26.2053 140.37 26.7467 140.37 27.4C140.37 28.0533 140.146 28.604 139.698 29.052C139.25 29.4813 138.681 29.696 137.99 29.696Z" fill="#FAB8C4"/>
</svg>
